<svg version="1.1" xmlns="http://www.w3.org/2000/svg" xmlns:xlink="http://www.w3.org/1999/xlink" width="248.27849" height="182.13243" viewBox="0,0,248.27849,182.13243"><defs><linearGradient x1="199.07836" y1="57.72429" x2="204.04362" y2="225.23336" gradientUnits="userSpaceOnUse" id="color-1"><stop offset="0" stop-color="#a6a6a6"/><stop offset="1" stop-color="#585858"/></linearGradient></defs><g transform="translate(-51.89644,-49.43379)"><g data-paper-data="{&quot;isPaintingLayer&quot;:true}" fill-rule="nonzero" stroke-linejoin="miter" stroke-miterlimit="10" stroke-dasharray="" stroke-dashoffset="0" style="mix-blend-mode: normal"><g data-paper-data="{&quot;origPos&quot;:null}" stroke="#000000" stroke-width="5" stroke-linecap="butt"><path d="M175.71973,135.77659c0,10.68093 -9.39239,19.33954 -20.97849,19.33954c-11.5861,0 -20.97849,-8.65861 -20.97849,-19.33954c0,-10.68093 9.39239,-19.33954 20.97849,-19.33954c11.5861,0 20.97849,8.65861 20.97849,19.33954z" fill="#344131"/><path d="M169.81953,129.8764c0,7.06028 -6.60402,12.78377 -14.7505,12.78377c-8.14648,0 -14.7505,-5.72349 -14.7505,-12.78377c0,-7.06028 6.60402,-12.78377 14.7505,-12.78377c8.14648,0 14.7505,5.72349 14.7505,12.78377z" data-paper-data="{&quot;origPos&quot;:null}" fill="#9c6a25"/></g><g data-paper-data="{&quot;origPos&quot;:null,&quot;origRot&quot;:0}"><path d="M298.83482,205.5184l-24.49776,17.63134l-65.39203,-45.06947l-38.46887,-23.37344l-18.65305,-50.41413l-18.1889,-7.66945l-17.04549,3.2492l-12.00675,-12.48871l1.21511,-13.93823l6.64679,-13.1532l135.61303,30.68928l39.27218,30.20712z" data-paper-data="{&quot;origPos&quot;:null,&quot;origRot&quot;:0}" fill="url(#color-1)" stroke="#000000" stroke-width="2.5" stroke-linecap="round"/><path d="M220.39181,85.50584l5.48173,-7.548l3.58157,-7.49168l9.50076,-0.28162l3.98779,6.21224l1.23131,9.45917l-3.42535,12.76243l-3.64407,5.38339l-11.43217,-0.71621l-8.76941,-7.12558l-13.30106,0.39426l-2.30637,-13.64761z" fill="#590000" stroke="#000000" stroke-width="2.5" stroke-linecap="round"/><path d="M117.18991,68.5185l2.44401,-13.78841l4.20652,13.59128" fill="none" stroke="#000000" stroke-width="2.5" stroke-linecap="round"/><path d="M128.14069,85.0751l16.30753,4.79198" fill="none" stroke="#000000" stroke-width="2.5" stroke-linecap="round"/><path d="M151.13001,90.7241l14.37612,3.79416" fill="none" stroke="#000000" stroke-width="2.5" stroke-linecap="round"/><path d="M193.84585,104.22898c3.41064,-0.1011 6.25244,2.41271 6.34736,5.61476c0.09491,3.20204 -2.59301,5.87977 -6.00364,5.98087c-3.41064,0.1011 -6.25243,-2.41272 -6.34735,-5.61476c-0.09491,-3.20205 2.593,-5.87977 6.00364,-5.98086z" fill="#000000" stroke="#a7a542" stroke-width="2.5" stroke-linecap="butt"/><path d="M183.77631,101.36223l5.70045,-0.16897" fill="none" stroke="#000000" stroke-width="2.5" stroke-linecap="round"/><path d="M179.52588,118.3694l7.66311,1.883" fill="none" stroke="#000000" stroke-width="2.5" stroke-linecap="round"/><path d="M183.07621,109.82356l-6.68179,-0.857" fill="none" stroke="#000000" stroke-width="2.5" stroke-linecap="round"/><path d="M129.40958,79.76211c3.93534,-0.11665 7.06727,-2.17824 7.18806,1.89708c0.11018,3.71696 0.3216,7.91828 -1.38671,11.10564c-1.15442,2.15391 -3.10009,1.68824 -5.3639,1.75534c-3.93534,0.11665 -7.22349,-3.0925 -7.34429,-7.16782c-0.1208,-4.07533 2.9715,-7.4736 6.90684,-7.59025z" data-paper-data="{&quot;origPos&quot;:null}" fill="#484848" stroke="#000000" stroke-width="2.5" stroke-linecap="butt"/><path d="M130.12221,75.78995l-14.2379,1.86374" fill="none" stroke="#000000" stroke-width="2" stroke-linecap="round"/><path d="M115.57678,89.19649l6.61926,4.12892" fill="none" stroke="#000000" stroke-width="2" stroke-linecap="round"/><path d="M128.08722,83.48308c-0.02158,-0.72774 0.49263,-1.33345 1.14853,-1.35288c0.65589,-0.01944 1.20508,0.55474 1.22664,1.28249c0.02158,0.72774 -0.49264,1.33345 -1.14853,1.35288c-0.65589,0.01944 -1.20508,-0.55474 -1.22665,-1.28249z" fill="#42a642" stroke="none" stroke-width="0.5" stroke-linecap="butt"/><path d="M128.42606,87.72772c-0.02158,-0.72774 0.49264,-1.33345 1.14854,-1.35288c0.65589,-0.01944 1.20508,0.55474 1.22665,1.28248c0.02158,0.72774 -0.49264,1.33345 -1.14853,1.35289c-0.65589,0.01944 -1.20508,-0.55474 -1.22666,-1.28249z" fill="#a7a542" stroke="none" stroke-width="0.5" stroke-linecap="butt"/><path d="M128.98476,92.20219c-0.02158,-0.72774 0.49264,-1.33344 1.14855,-1.35288c0.65589,-0.01944 1.20508,0.55474 1.22665,1.28247c0.02158,0.72774 -0.49264,1.33345 -1.14853,1.35289c-0.65589,0.01944 -1.20509,-0.55474 -1.22666,-1.28248z" fill="#590000" stroke="none" stroke-width="0.5" stroke-linecap="butt"/></g><path d="M113.4284,100.91656l20.13296,-5.13804l16.90982,8.91235l17.10402,37.22118l2.89769,14.04149l-29.62265,-17.78709l-19.80919,-21.37052z" data-paper-data="{&quot;origPos&quot;:null,&quot;origRot&quot;:0}" fill="#590000" stroke="#000000" stroke-width="2.5" stroke-linecap="round"/><g data-paper-data="{&quot;origRot&quot;:0,&quot;origPos&quot;:null}" stroke="#000000" stroke-width="5"><path d="M138.72793,119.03755c4.47815,15.81623 14.27545,19.69749 14.02565,19.77523c-0.08327,0.02591 -0.42919,15.89335 -0.5131,15.91711c-16.40147,4.64386 -47.39623,-21.61604 -47.583,-22.27566c-2.17,-7.66416 -6.85947,-26.2027 6.03025,-29.85226c12.88973,-3.64955 25.87019,8.77141 28.04019,16.43558z" data-paper-data="{&quot;origRot&quot;:0,&quot;origPos&quot;:null}" fill="#004800" stroke-linecap="butt"/><path d="M139.39525,122.07164c3.25938,11.51166 12.05613,16.56387 11.87432,16.62046c-1.15571,0.35966 -0.68701,3.72784 -0.51624,4.92611c0.51229,3.59481 4.89997,5.58938 0.79166,6.75253c-13.77756,3.90093 -27.6604,-24.84204 -27.94479,-25.84645c-1.57941,-5.57827 -18.62486,-16.4005 -9.24322,-19.05678c9.38163,-2.65628 23.45888,11.02587 25.03829,16.60414z" data-paper-data="{&quot;origRot&quot;:0,&quot;origPos&quot;:null}" fill="#ffcd87" stroke-linecap="butt"/><path d="M146.10554,134.79383l-3.16291,8.15459" fill="none" stroke-linecap="round"/><path d="M138.88657,125.14226l-5.38413,5.18487" fill="none" stroke-linecap="round"/><path d="M126.83878,121.41798l6.49474,-3.70001" fill="none" stroke-linecap="round"/><path d="M126.75736,112.79559l-5.75231,3.14471" fill="none" stroke-linecap="round"/><path d="M131.44408,144.6022l-13.24589,-9.1959l-8.97844,-11.22999" fill="none" stroke-linecap="round"/></g><path d="M113.60342,142.44215l38.42119,15.07839l-72.09509,70.42009l-24.59562,-27.859z" data-paper-data="{&quot;origPos&quot;:null,&quot;origRot&quot;:0,&quot;index&quot;:null}" fill="#004800" stroke="#000000" stroke-width="5" stroke-linecap="round"/></g></g></svg>