<svg version="1.1" xmlns="http://www.w3.org/2000/svg" xmlns:xlink="http://www.w3.org/1999/xlink" width="385.2071" height="281.30542" viewBox="0,0,385.2071,281.30542"><defs><radialGradient cx="146.9164" cy="84.66613" r="53" gradientUnits="userSpaceOnUse" id="color-1"><stop offset="0" stop-color="#ffffff"/><stop offset="1" stop-color="#ffca62"/></radialGradient><radialGradient cx="148.46712" cy="92.34729" r="148.15395" gradientUnits="userSpaceOnUse" id="color-2"><stop offset="0" stop-color="#ffca62"/><stop offset="1" stop-color="#9c9c9c"/></radialGradient></defs><g transform="translate(-47.39646,-39.34729)"><g data-paper-data="{&quot;isPaintingLayer&quot;:true}" fill-rule="nonzero" stroke-linejoin="miter" stroke-miterlimit="10" stroke-dasharray="" stroke-dashoffset="0" style="mix-blend-mode: normal"><g data-paper-data="{&quot;origPos&quot;:null}" stroke="#000000" stroke-width="5" stroke-linecap="butt"><path d="M241.46712,191.84729c0,16.2924 -14.32689,29.5 -32,29.5c-17.67311,0 -32,-13.2076 -32,-29.5c0,-16.2924 14.32689,-29.5 32,-29.5c17.67311,0 32,13.2076 32,29.5z" fill="#344131"/><path d="M232.46712,182.84729c0,10.76956 -10.0736,19.5 -22.5,19.5c-12.4264,0 -22.5,-8.73044 -22.5,-19.5c0,-10.76956 10.0736,-19.5 22.5,-19.5c12.4264,0 22.5,8.73044 22.5,19.5z" data-paper-data="{&quot;origPos&quot;:null}" fill="#9c6a25"/></g><path d="M191.46712,92.34729c0,12.97195 -30.6014,3.71542 -37.86978,14.45981c-10.22083,15.10883 7.33563,38.54019 -10.90558,38.54019c-15.08196,0 -6.35117,-24.24223 -16.62648,-35.28232c-10.99015,-11.80814 -32.14888,-1.58649 -32.14888,-17.71768c0,-15.33094 20.79115,-3.02464 30.78207,-14.65303c10.35018,-12.04652 2.11107,-38.34697 17.9933,-38.34697c0,0 6.07078,29.68422 16.43697,42.31003c9.44031,11.49812 32.3384,-18.58112 32.3384,10.68997z" data-paper-data="{&quot;origPos&quot;:null}" fill="url(#color-1)" stroke="#000000" stroke-width="0" stroke-linecap="butt"/><g data-paper-data="{&quot;origPos&quot;:null,&quot;origRot&quot;:0}"><path d="M431.26344,292.22949l-37.3682,26.89435l-99.74719,-68.74771l-58.67934,-35.6532l-28.45285,-76.90031l-27.74484,-11.69877l-26.00072,4.95624l-18.31476,-19.04993l1.85349,-21.26099l10.13883,-20.06353l206.86034,46.81258l59.90469,46.0771z" data-paper-data="{&quot;origPos&quot;:null,&quot;origRot&quot;:0}" fill="url(#color-2)" stroke="#000000" stroke-width="2.5" stroke-linecap="round"/><path d="M311.60866,109.16567l8.36168,-11.51351l5.46323,-11.4276l14.4922,-0.42957l6.08286,9.47598l1.8782,14.42876l-5.22493,19.46745l-5.55857,8.21167l-17.43831,-1.09248l-13.37661,-10.86916l-20.28906,0.6014l-3.51807,-20.81768z" fill="#590000" stroke="#000000" stroke-width="2.5" stroke-linecap="round"/><path d="M154.18736,83.25366l3.72803,-21.03246l6.41651,20.73176" fill="none" stroke="#000000" stroke-width="2.5" stroke-linecap="round"/><path d="M170.89138,108.50863l24.87505,7.30956" fill="none" stroke="#000000" stroke-width="2.5" stroke-linecap="round"/><path d="M205.95863,117.12546l21.92893,5.78751" fill="none" stroke="#000000" stroke-width="2.5" stroke-linecap="round"/><path d="M271.11619,137.72542c5.20249,-0.15421 9.5373,3.68028 9.68208,8.5646c0.14478,4.8843 -3.9553,8.96884 -9.15779,9.12305c-5.20249,0.15421 -9.53728,-3.6803 -9.68207,-8.5646c-0.14478,-4.88432 3.95529,-8.96884 9.15778,-9.12304z" fill="#000000" stroke="#a7a542" stroke-width="2.5" stroke-linecap="butt"/><path d="M264.4517,133.09482l-8.69531,0.25774" fill="none" stroke="#000000" stroke-width="2.5" stroke-linecap="round"/><path d="M260.96199,162.16711l-11.68909,-2.87228" fill="none" stroke="#000000" stroke-width="2.5" stroke-linecap="round"/><path d="M244.49626,144.952l10.19221,1.30725" fill="none" stroke="#000000" stroke-width="2.5" stroke-linecap="round"/><path d="M172.8269,100.40435c6.00286,-0.17793 10.78021,-3.32262 10.96447,2.89376c0.16806,5.66975 0.49056,12.07833 -2.11525,16.94024c-1.76092,3.28551 -4.72879,2.57519 -8.18194,2.67755c-6.00286,0.17793 -11.01851,-4.71722 -11.20278,-10.9336c-0.18426,-6.21639 4.53264,-11.40002 10.5355,-11.57796z" data-paper-data="{&quot;origPos&quot;:null}" fill="#484848" stroke="#000000" stroke-width="2.5" stroke-linecap="butt"/><path d="M152.19583,97.18822l21.71809,-2.8429" fill="none" stroke="#000000" stroke-width="2" stroke-linecap="round"/><path d="M151.72673,114.79529l10.09684,6.29814" fill="none" stroke="#000000" stroke-width="2" stroke-linecap="round"/><path d="M170.8098,106.08021c-0.03291,-1.11008 0.75145,-2.034 1.75194,-2.06365c1.00047,-0.02965 1.83819,0.84619 1.87109,1.95627c0.03291,1.11008 -0.75146,2.034 -1.75194,2.06365c-1.00047,0.02965 -1.83819,-0.84619 -1.8711,-1.95627z" fill="#42a642" stroke="none" stroke-width="0.5" stroke-linecap="butt"/><path d="M171.32666,112.55486c-0.03291,-1.11008 0.75146,-2.034 1.75195,-2.06365c1.00047,-0.02965 1.83819,0.84618 1.8711,1.95626c0.03291,1.11008 -0.75146,2.03401 -1.75194,2.06366c-1.00047,0.02965 -1.8382,-0.84618 -1.87111,-1.95627z" fill="#a7a542" stroke="none" stroke-width="0.5" stroke-linecap="butt"/><path d="M172.17888,119.3801c-0.03291,-1.11008 0.75146,-2.03399 1.75196,-2.06365c1.00047,-0.02965 1.83819,0.84618 1.8711,1.95625c0.03291,1.11008 -0.75146,2.034 -1.75194,2.06366c-1.00047,0.02966 -1.83821,-0.84619 -1.87111,-1.95626z" fill="#590000" stroke="none" stroke-width="0.5" stroke-linecap="butt"/></g><path d="M148.44965,132.67276l30.71026,-7.83742l25.79377,13.59465l26.08999,56.77615l4.42006,21.4185l-45.18556,-27.13193l-30.21639,-32.598z" data-paper-data="{&quot;origPos&quot;:null,&quot;origRot&quot;:0}" fill="#590000" stroke="#000000" stroke-width="2.5" stroke-linecap="round"/><g data-paper-data="{&quot;origRot&quot;:0,&quot;origPos&quot;:null}" stroke="#000000" stroke-width="5"><path d="M196.04085,161.314c6.83085,24.12565 21.77538,30.046 21.39433,30.16459c-0.12702,0.03953 -0.65467,24.24327 -0.78267,24.27951c-25.01834,7.0836 -72.2969,-32.9725 -72.58178,-33.97867c-3.31007,-11.6907 -10.46325,-39.96887 9.19838,-45.5358c19.66163,-5.56693 39.46167,13.37967 42.77173,25.07037z" data-paper-data="{&quot;origRot&quot;:0,&quot;origPos&quot;:null}" fill="#004800" stroke-linecap="butt"/><path d="M197.05876,165.94213c4.97175,17.55957 18.3901,25.26607 18.11275,25.35238c-1.76288,0.54861 -1.04794,5.68633 -0.78746,7.51414c0.78145,5.48343 7.47429,8.52589 1.20758,10.30012c-21.01592,5.95038 -42.19242,-37.89335 -42.62621,-39.42545c-2.40919,-8.50894 -28.40984,-25.01686 -14.09936,-29.06868c14.31049,-4.05182 35.78351,16.81855 38.1927,25.32749z" data-paper-data="{&quot;origRot&quot;:0,&quot;origPos&quot;:null}" fill="#ffcd87" stroke-linecap="butt"/><path d="M202.46983,197.78698l4.82461,-12.43877" fill="none" stroke-linecap="round"/><path d="M196.28284,170.62597l-8.2128,7.90885" fill="none" stroke-linecap="round"/><path d="M177.90547,164.94505l9.90689,-5.64389" fill="none" stroke-linecap="round"/><path d="M169.00686,156.58955l8.77441,-4.79685" fill="none" stroke-linecap="round"/><path d="M184.93027,200.30963l-20.20491,-14.02717l-13.69547,-17.12993" fill="none" stroke-linecap="round"/></g><path d="M139.71662,186.01474l58.60662,23.00015l-109.97184,107.41686l-37.51748,-42.49535z" data-paper-data="{&quot;origPos&quot;:null,&quot;origRot&quot;:0,&quot;index&quot;:null}" fill="#004800" stroke="#000000" stroke-width="5" stroke-linecap="round"/></g></g></svg>