<svg version="1.1" xmlns="http://www.w3.org/2000/svg" xmlns:xlink="http://www.w3.org/1999/xlink" width="318.64623" height="240.84577" viewBox="0,0,318.64623,240.84577"><defs><radialGradient cx="131.55699" cy="78.07543" r="55.46952" gradientUnits="userSpaceOnUse" id="color-1"><stop offset="0" stop-color="#ffffff"/><stop offset="1" stop-color="#ffca62"/></radialGradient><radialGradient cx="133.9687" cy="81.29105" r="119.10185" gradientUnits="userSpaceOnUse" id="color-2"><stop offset="0" stop-color="#ffca62"/><stop offset="1" stop-color="#9c9c9c"/></radialGradient></defs><g transform="translate(-42.39644,-30.64497)"><g data-paper-data="{&quot;isPaintingLayer&quot;:true}" fill-rule="nonzero" stroke-linejoin="miter" stroke-miterlimit="10" stroke-dasharray="" stroke-dashoffset="0" style="mix-blend-mode: normal"><path d="M201.49681,162.88751c0,13.09756 -11.51747,23.71523 -25.72499,23.71523c-14.20752,0 -25.72499,-10.61767 -25.72499,-23.71523c0,-13.09756 11.51747,-23.71523 25.72499,-23.71523c14.20752,0 25.72499,10.61767 25.72499,23.71523z" fill="#344131" stroke="#000000" stroke-width="5" stroke-linecap="butt"/><path d="M194.26166,155.65236c0,8.65771 -8.09823,15.67617 -18.08789,15.67617c-9.98966,0 -18.08789,-7.01845 -18.08789,-15.67617c0,-8.65771 8.09823,-15.67617 18.08789,-15.67617c9.98966,0 18.08789,7.01845 18.08789,15.67617z" data-paper-data="{&quot;origPos&quot;:null}" fill="#9c6a25" stroke="#000000" stroke-width="5" stroke-linecap="butt"/><path d="M178.18353,86.11449c0,13.57636 -32.02726,3.88853 -39.6343,15.13355c-10.69707,15.81282 7.67743,40.33596 -11.41373,40.33596c-15.7847,0 -6.6471,-25.37178 -17.40118,-36.92628c-11.50224,-12.35833 -33.64685,-1.66041 -33.64685,-18.54323c0,-16.04528 21.7599,-3.16557 32.21635,-15.33578c10.83245,-12.60783 2.20944,-40.13374 18.83168,-40.13374c0,0 6.35364,31.06734 17.20284,44.28145c9.88018,12.03386 33.84519,-19.4469 33.84519,11.18806z" data-paper-data="{&quot;origPos&quot;:null}" fill="url(#color-1)" stroke="#000000" stroke-width="0" stroke-linecap="butt"/><g data-paper-data="{&quot;origPos&quot;:null,&quot;origRot&quot;:0}"><path d="M359.70256,246.80099l-30.04052,21.62053l-80.18737,-55.2667l-47.17267,-28.66182l-22.87342,-61.82062l-22.30424,-9.40471l-20.90214,3.98435l-14.72335,-15.31435l1.49003,-17.09184l8.15067,-16.12919l166.29627,37.63292l48.15774,37.04166z" data-paper-data="{&quot;origPos&quot;:null,&quot;origRot&quot;:0}" fill="url(#color-2)" stroke="#000000" stroke-width="2.5" stroke-linecap="round"/><path d="M263.51136,99.63489l6.722,-9.25578l4.39192,-9.18672l11.65037,-0.34533l4.89005,7.6178l1.5099,11.59937l-4.20035,15.65l-4.46857,6.60141l-14.01876,-0.87825l-10.75354,-8.73778l-16.3105,0.48347l-2.8282,-16.73546z" fill="#590000" stroke="#004800" stroke-width="2.5" stroke-linecap="round"/><path d="M136.95943,78.80407l2.99699,-16.90812l5.15827,16.66639" fill="none" stroke="#000000" stroke-width="2.5" stroke-linecap="round"/><path d="M150.38789,99.10669l19.9972,5.8762" fill="none" stroke="#000000" stroke-width="2.5" stroke-linecap="round"/><path d="M178.57866,106.03381l17.6288,4.65261" fill="none" stroke="#000000" stroke-width="2.5" stroke-linecap="round"/><path d="M230.95922,122.59424c4.18231,-0.12397 7.66709,2.9586 7.78348,6.88513c0.11639,3.92652 -3.17969,7.2101 -7.362,7.33407c-4.18231,0.12397 -7.66708,-2.95862 -7.78347,-6.88513c-0.11639,-3.92653 3.17968,-7.2101 7.36199,-7.33407z" fill="#000000" stroke="#a7a542" stroke-width="2.5" stroke-linecap="butt"/><path d="M218.61138,119.07887l6.99021,-0.2072" fill="none" stroke="#000000" stroke-width="2.5" stroke-linecap="round"/><path d="M222.7962,142.24306l-9.39693,-2.30904" fill="none" stroke="#000000" stroke-width="2.5" stroke-linecap="round"/><path d="M217.75287,129.45464l-8.19358,-1.05091" fill="none" stroke="#000000" stroke-width="2.5" stroke-linecap="round"/><path d="M151.94387,92.59161c4.82574,-0.14304 8.66628,-2.67107 8.8144,2.32631c0.1351,4.55795 0.39436,9.70984 -1.70046,13.61836c-1.41561,2.64124 -3.8015,2.07021 -6.57751,2.1525c-4.82574,0.14304 -8.85785,-3.7922 -9.00598,-8.78959c-0.14813,-4.99739 3.64382,-9.16454 8.46955,-9.30759z" data-paper-data="{&quot;origPos&quot;:null}" fill="#484848" stroke="#000000" stroke-width="2.5" stroke-linecap="butt"/><path d="M152.81772,87.72072l-17.4593,2.28542" fill="none" stroke="#000000" stroke-width="2" stroke-linecap="round"/><path d="M134.98131,104.16057l8.11691,5.06311" fill="none" stroke="#000000" stroke-width="2" stroke-linecap="round"/><path d="M150.32231,97.15447c-0.02646,-0.8924 0.6041,-1.63514 1.4084,-1.65898c0.80428,-0.02384 1.47773,0.68026 1.50418,1.57266c0.02646,0.8924 -0.6041,1.63514 -1.4084,1.65898c-0.80428,0.02384 -1.47773,-0.68026 -1.50419,-1.57266z" fill="#42a642" stroke="none" stroke-width="0.5" stroke-linecap="butt"/><path d="M150.73781,102.35948c-0.02646,-0.8924 0.6041,-1.63514 1.4084,-1.65898c0.80428,-0.02384 1.47773,0.68025 1.50419,1.57265c0.02646,0.8924 -0.6041,1.63515 -1.4084,1.65899c-0.80428,0.02384 -1.47774,-0.68025 -1.5042,-1.57266z" fill="#a7a542" stroke="none" stroke-width="0.5" stroke-linecap="butt"/><path d="M151.42292,107.84633c-0.02646,-0.8924 0.6041,-1.63514 1.40841,-1.65898c0.80428,-0.02384 1.47773,0.68025 1.50419,1.57264c0.02646,0.8924 -0.6041,1.63514 -1.4084,1.65899c-0.80428,0.02384 -1.47775,-0.68026 -1.5042,-1.57265z" fill="#590000" stroke="none" stroke-width="0.5" stroke-linecap="butt"/></g><path d="M132.34685,118.53238l24.68816,-6.30055l20.73577,10.92882l20.9739,45.64269l3.55331,17.21846l-36.32494,-21.81152l-24.29114,-26.20573z" data-paper-data="{&quot;origPos&quot;:null,&quot;origRot&quot;:0}" fill="#590000" stroke="#000000" stroke-width="2.5" stroke-linecap="round"/><g data-paper-data="{&quot;origRot&quot;:0,&quot;origPos&quot;:null}" stroke="#000000" stroke-width="5"><path d="M160.95883,141.55724c5.49136,19.39476 17.50536,24.15416 17.19903,24.2495c-0.10211,0.03178 -0.52629,19.48931 -0.62919,19.51844c-20.11239,5.69455 -58.11991,-26.50679 -58.34893,-27.31566c-2.66099,-9.39822 -8.41147,-32.13122 7.39463,-36.6065c15.8061,-4.47529 31.72347,10.756 34.38445,20.15422z" data-paper-data="{&quot;origRot&quot;:0,&quot;origPos&quot;:null}" fill="#004800" stroke-linecap="butt"/><path d="M161.77713,145.27782c3.99682,14.11624 14.78391,20.31155 14.56095,20.38093c-1.41719,0.44103 -0.84245,4.57127 -0.63304,6.04066c0.62821,4.40816 6.00863,6.85401 0.97078,8.28033c-16.89482,4.78355 -33.91874,-30.46269 -34.26747,-31.69436c-1.93676,-6.84039 -22.83884,-20.1112 -11.33456,-23.36849c11.50429,-3.25728 28.76658,13.52053 30.70334,20.36092z" data-paper-data="{&quot;origRot&quot;:0,&quot;origPos&quot;:null}" fill="#ffcd87" stroke-linecap="butt"/><path d="M170.00566,160.87849l-3.87853,9.9996" fill="none" stroke-linecap="round"/><path d="M154.55104,155.40116l6.60232,-6.35797" fill="none" stroke-linecap="round"/><path d="M154.34389,139.93911l-7.96421,4.53716" fill="none" stroke-linecap="round"/><path d="M146.27984,133.90301l-7.0538,3.85622" fill="none" stroke-linecap="round"/><path d="M152.02697,172.90606l-16.24285,-11.27653l-11.00987,-13.77085" fill="none" stroke-linecap="round"/></g><path d="M117.28725,163.02213l47.11421,18.48996l-88.40702,86.35306l-30.16053,-34.16227z" data-paper-data="{&quot;origPos&quot;:null,&quot;origRot&quot;:0,&quot;index&quot;:null}" fill="#004800" stroke="#000000" stroke-width="5" stroke-linecap="round"/></g></g></svg>